<?xml version="1.0" encoding="UTF-8"?>
<mxfile host="app.diagrams.net" agent="Claude Code">
  <diagram name="Code Quality Audit Architecture" id="audit-architecture">
    <mxGraphModel dx="1000" dy="800" grid="1" gridSize="10" guides="1" tooltips="1" connect="1" arrows="1" fold="1" page="1" pageScale="1" pageWidth="1100" pageHeight="850" math="0" shadow="0">
      <root>
        <mxCell id="0" />
        <mxCell id="1" parent="0" />
        
        <!-- Scanner Module -->
        <mxCell id="scanner" value="Scanner Module" style="rounded=1;whiteSpace=wrap;html=1;fillColor=#e1f5fe;strokeColor=#01579b;strokeWidth=2;fontSize=14;fontStyle=1;" vertex="1" parent="1">
          <mxGeometry x="40" y="40" width="200" height="60" as="geometry" />
        </mxCell>
        
        <!-- Scanner Components -->
        <mxCell id="fileDiscovery" value="File Discovery" style="rounded=0;whiteSpace=wrap;html=1;fillColor=#e3f2fd;strokeColor=#0277bd;" vertex="1" parent="1">
          <mxGeometry x="40" y="140" width="160" height="40" as="geometry" />
        </mxCell>
        
        <mxCell id="metricsCollector" value="Metrics Collector" style="rounded=0;whiteSpace=wrap;html=1;fillColor=#e3f2fd;strokeColor=#0277bd;" vertex="1" parent="1">
          <mxGeometry x="40" y="190" width="160" height="40" as="geometry" />
        </mxCell>
        
        <mxCell id="patternDetector" value="Pattern Detector" style="rounded=0;whiteSpace=wrap;html=1;fillColor=#e3f2fd;strokeColor=#0277bd;" vertex="1" parent="1">
          <mxGeometry x="40" y="240" width="160" height="40" as="geometry" />
        </mxCell>
        
        <!-- Analysis Modules -->
        <mxCell id="analyzers" value="Analysis Modules" style="rounded=1;whiteSpace=wrap;html=1;fillColor=#f3e5f5;strokeColor=#4a148c;strokeWidth=2;fontSize=14;fontStyle=1;" vertex="1" parent="1">
          <mxGeometry x="320" y="40" width="200" height="60" as="geometry" />
        </mxCell>
        
        <!-- Analyzer Components -->
        <mxCell id="duplicateDetector" value="Duplicate Code&lt;br&gt;Detector" style="rounded=0;whiteSpace=wrap;html=1;fillColor=#f3e5f5;strokeColor=#6a1b9a;" vertex="1" parent="1">
          <mxGeometry x="280" y="120" width="120" height="40" as="geometry" />
        </mxCell>
        
        <mxCell id="complexityAnalyzer" value="Complexity&lt;br&gt;Analyzer" style="rounded=0;whiteSpace=wrap;html=1;fillColor=#f3e5f5;strokeColor=#6a1b9a;" vertex="1" parent="1">
          <mxGeometry x="420" y="120" width="120" height="40" as="geometry" />
        </mxCell>
        
        <mxCell id="namingChecker" value="Naming Convention&lt;br&gt;Checker" style="rounded=0;whiteSpace=wrap;html=1;fillColor=#f3e5f5;strokeColor=#6a1b9a;" vertex="1" parent="1">
          <mxGeometry x="280" y="170" width="120" height="40" as="geometry" />
        </mxCell>
        
        <mxCell id="typeChecker" value="Type Annotation&lt;br&gt;Checker" style="rounded=0;whiteSpace=wrap;html=1;fillColor=#f3e5f5;strokeColor=#6a1b9a;" vertex="1" parent="1">
          <mxGeometry x="420" y="170" width="120" height="40" as="geometry" />
        </mxCell>
        
        <mxCell id="unusedDetector" value="Unused Code&lt;br&gt;Detector" style="rounded=0;whiteSpace=wrap;html=1;fillColor=#f3e5f5;strokeColor=#6a1b9a;" vertex="1" parent="1">
          <mxGeometry x="350" y="220" width="120" height="40" as="geometry" />
        </mxCell>
        
        <!-- Best Practices Evaluators -->
        <mxCell id="evaluators" value="Best Practices Evaluators" style="rounded=1;whiteSpace=wrap;html=1;fillColor=#fff3e0;strokeColor=#e65100;strokeWidth=2;fontSize=14;fontStyle=1;" vertex="1" parent="1">
          <mxGeometry x="600" y="40" width="200" height="60" as="geometry" />
        </mxCell>
        
        <!-- Evaluator Components -->
        <mxCell id="solidChecker" value="SOLID Principles&lt;br&gt;Checker" style="rounded=0;whiteSpace=wrap;html=1;fillColor=#fff8e1;strokeColor=#f57c00;" vertex="1" parent="1">
          <mxGeometry x="560" y="120" width="120" height="40" as="geometry" />
        </mxCell>
        
        <mxCell id="dryAnalyzer" value="DRY&lt;br&gt;Analyzer" style="rounded=0;whiteSpace=wrap;html=1;fillColor=#fff8e1;strokeColor=#f57c00;" vertex="1" parent="1">
          <mxGeometry x="700" y="120" width="120" height="40" as="geometry" />
        </mxCell>
        
        <mxCell id="serviceValidator" value="Service Architecture&lt;br&gt;Validator" style="rounded=0;whiteSpace=wrap;html=1;fillColor=#fff8e1;strokeColor=#f57c00;" vertex="1" parent="1">
          <mxGeometry x="560" y="170" width="120" height="40" as="geometry" />
        </mxCell>
        
        <mxCell id="errorChecker" value="Error Handling&lt;br&gt;Checker" style="rounded=0;whiteSpace=wrap;html=1;fillColor=#fff8e1;strokeColor=#f57c00;" vertex="1" parent="1">
          <mxGeometry x="700" y="170" width="120" height="40" as="geometry" />
        </mxCell>
        
        <!-- Visualization Generators -->
        <mxCell id="visualizers" value="Visualization Generators" style="rounded=1;whiteSpace=wrap;html=1;fillColor=#e8f5e9;strokeColor=#1b5e20;strokeWidth=2;fontSize=14;fontStyle=1;" vertex="1" parent="1">
          <mxGeometry x="880" y="40" width="200" height="60" as="geometry" />
        </mxCell>
        
        <!-- Visualizer Components -->
        <mxCell id="dependencyGen" value="Dependency Diagram&lt;br&gt;Generator" style="rounded=0;whiteSpace=wrap;html=1;fillColor=#f1f8e9;strokeColor=#33691e;" vertex="1" parent="1">
          <mxGeometry x="840" y="120" width="120" height="40" as="geometry" />
        </mxCell>
        
        <mxCell id="serviceMapper" value="Service Relationship&lt;br&gt;Mapper" style="rounded=0;whiteSpace=wrap;html=1;fillColor=#f1f8e9;strokeColor=#33691e;" vertex="1" parent="1">
          <mxGeometry x="980" y="120" width="120" height="40" as="geometry" />
        </mxCell>
        
        <mxCell id="hotspotViz" value="Complexity Hotspot&lt;br&gt;Visualizer" style="rounded=0;whiteSpace=wrap;html=1;fillColor=#f1f8e9;strokeColor=#33691e;" vertex="1" parent="1">
          <mxGeometry x="910" y="170" width="120" height="40" as="geometry" />
        </mxCell>
        
        <!-- Report Generator -->
        <mxCell id="reporter" value="Report Generator" style="rounded=1;whiteSpace=wrap;html=1;fillColor=#fce4ec;strokeColor=#880e4f;strokeWidth=2;fontSize=14;fontStyle=1;" vertex="1" parent="1">
          <mxGeometry x="450" y="320" width="200" height="60" as="geometry" />
        </mxCell>
        
        <!-- Reporter Components -->
        <mxCell id="summaryGen" value="Summary&lt;br&gt;Generator" style="rounded=0;whiteSpace=wrap;html=1;fillColor=#fce4ec;strokeColor=#ad1457;" vertex="1" parent="1">
          <mxGeometry x="320" y="420" width="120" height="40" as="geometry" />
        </mxCell>
        
        <mxCell id="inventoryBuilder" value="Inventory&lt;br&gt;Builder" style="rounded=0;whiteSpace=wrap;html=1;fillColor=#fce4ec;strokeColor=#ad1457;" vertex="1" parent="1">
          <mxGeometry x="460" y="420" width="120" height="40" as="geometry" />
        </mxCell>
        
        <mxCell id="recommendationsPri" value="Recommendations&lt;br&gt;Prioritizer" style="rounded=0;whiteSpace=wrap;html=1;fillColor=#fce4ec;strokeColor=#ad1457;" vertex="1" parent="1">
          <mxGeometry x="600" y="420" width="120" height="40" as="geometry" />
        </mxCell>
        
        <mxCell id="reportFormatter" value="Report&lt;br&gt;Formatter" style="rounded=0;whiteSpace=wrap;html=1;fillColor=#fce4ec;strokeColor=#ad1457;" vertex="1" parent="1">
          <mxGeometry x="460" y="480" width="120" height="40" as="geometry" />
        </mxCell>
        
        <!-- Output -->
        <mxCell id="output" value="F004-CodeQualityReport.md" style="rounded=1;whiteSpace=wrap;html=1;fillColor=#c8e6c9;strokeColor=#2e7d32;strokeWidth=2;fontSize=14;fontStyle=1;" vertex="1" parent="1">
          <mxGeometry x="420" y="560" width="200" height="60" as="geometry" />
        </mxCell>
        
        <!-- Connections -->
        <mxCell id="edge1" edge="1" parent="1" source="scanner" target="fileDiscovery">
          <mxGeometry relative="1" as="geometry" />
        </mxCell>
        
        <mxCell id="edge2" edge="1" parent="1" source="scanner" target="metricsCollector">
          <mxGeometry relative="1" as="geometry" />
        </mxCell>
        
        <mxCell id="edge3" edge="1" parent="1" source="scanner" target="patternDetector">
          <mxGeometry relative="1" as="geometry" />
        </mxCell>
        
        <mxCell id="edge4" edge="1" parent="1" source="fileDiscovery" target="analyzers">
          <mxGeometry relative="1" as="geometry" />
        </mxCell>
        
        <mxCell id="edge5" edge="1" parent="1" source="metricsCollector" target="analyzers">
          <mxGeometry relative="1" as="geometry" />
        </mxCell>
        
        <mxCell id="edge6" edge="1" parent="1" source="patternDetector" target="analyzers">
          <mxGeometry relative="1" as="geometry" />
        </mxCell>
        
        <mxCell id="edge7" edge="1" parent="1" source="analyzers" target="evaluators">
          <mxGeometry relative="1" as="geometry" />
        </mxCell>
        
        <mxCell id="edge8" edge="1" parent="1" source="evaluators" target="visualizers">
          <mxGeometry relative="1" as="geometry" />
        </mxCell>
        
        <mxCell id="edge9" edge="1" parent="1" source="analyzers" target="reporter">
          <mxGeometry relative="1" as="geometry" />
        </mxCell>
        
        <mxCell id="edge10" edge="1" parent="1" source="evaluators" target="reporter">
          <mxGeometry relative="1" as="geometry" />
        </mxCell>
        
        <mxCell id="edge11" edge="1" parent="1" source="visualizers" target="reporter">
          <mxGeometry relative="1" as="geometry" />
        </mxCell>
        
        <mxCell id="edge12" edge="1" parent="1" source="reporter" target="summaryGen">
          <mxGeometry relative="1" as="geometry" />
        </mxCell>
        
        <mxCell id="edge13" edge="1" parent="1" source="reporter" target="inventoryBuilder">
          <mxGeometry relative="1" as="geometry" />
        </mxCell>
        
        <mxCell id="edge14" edge="1" parent="1" source="reporter" target="recommendationsPri">
          <mxGeometry relative="1" as="geometry" />
        </mxCell>
        
        <mxCell id="edge15" edge="1" parent="1" source="summaryGen" target="reportFormatter">
          <mxGeometry relative="1" as="geometry" />
        </mxCell>
        
        <mxCell id="edge16" edge="1" parent="1" source="inventoryBuilder" target="reportFormatter">
          <mxGeometry relative="1" as="geometry" />
        </mxCell>
        
        <mxCell id="edge17" edge="1" parent="1" source="recommendationsPri" target="reportFormatter">
          <mxGeometry relative="1" as="geometry" />
        </mxCell>
        
        <mxCell id="edge18" edge="1" parent="1" source="reportFormatter" target="output">
          <mxGeometry relative="1" as="geometry" />
        </mxCell>
        
      </root>
    </mxGraphModel>
  </diagram>
</mxfile>